#Comment line ignore any data following # character 
#Hierarchical Translation and Rotation (.htr) file 
[Header]	
#Header keywords are followed by a single value 
FileType HTR		#Single word string
DataType HTRS		#Translation followed by rotation and scale data
FileVersion 1		#integer
NumSegments 29		#integer
NumFrames 4		#integer
DataFrameRate 30		#integer, data frame rate in this file
EulerRotationOrder ZYX
CalibrationUnits mm
RotationUnits Degrees
GlobalAxisofGravity Y
BoneLengthAxis Y
ScaleFactor 1.00
[SegmentNames&Hierarchy]
#CHILD	PARENT
MASTER GLOBAL
weapon MASTER
back_slider weapon
front_bottom weapon
front_middle_part1 weapon
front_middle_part2 weapon
front_middle_part3 weapon
front_middle_part4 weapon
front_top weapon
wing_bottom_left weapon
wing_bottom_right weapon
wing_top_left weapon
wing_top_right weapon
front_bottom_rumble_left front_bottom
front_bottom_rumble_right front_bottom
back_rotate_bottom_left front_middle_part3
back_rotate_bottom_right front_middle_part3
back_rotate_top_left front_middle_part3
back_rotate_top_right front_middle_part3
front_middle_part3_left front_middle_part3
front_middle_part3_right front_middle_part3
wing_bottom_left_buckets_1 wing_bottom_left
wing_bottom_left_buckets_2 wing_bottom_left
wing_bottom_left_buckets_3 wing_bottom_left
wing_bottom_right_buckets wing_bottom_right
wing_top_left_buckets wing_top_left
wing_top_left_buckets_1 wing_top_left
wing_top_left_buckets_3 wing_top_left
wing_top_right_buckets wing_top_right
[BasePosition]
#SegmentName Tx, Ty, Tz, Rx, Ry, Rz, BoneLength
MASTER 0.000000 0.000000 0.000000 -90.000000 0.000000 0.000000 10.000000 
weapon 0.000000 0.000000 0.000000 0.000000 0.000000 0.000000 10.000000 
back_slider 0.000000 0.000000 0.000000 0.000000 0.000000 0.000000 10.000000 
front_bottom 0.000000 0.000000 0.000000 0.000000 0.000000 0.000000 10.000000 
front_middle_part1 0.000000 0.000000 0.000000 0.000000 0.000000 0.000000 10.000000 
front_middle_part2 0.000000 0.000000 0.000000 0.000000 0.000000 0.000000 10.000000 
front_middle_part3 0.000000 0.000000 0.000000 0.000000 0.000000 0.000000 10.000000 
front_middle_part4 0.000000 0.000000 0.000000 0.000000 0.000000 0.000000 10.000000 
front_top 0.000000 0.000000 0.000000 0.000000 0.000000 0.000000 10.000000 
wing_bottom_left 0.000000 0.000000 0.000000 0.000000 0.000000 0.000000 10.000000 
wing_bottom_right 0.000000 0.000000 0.000000 0.000000 0.000000 0.000000 10.000000 
wing_top_left 0.000000 0.000000 0.000000 0.000000 0.000000 0.000000 10.000000 
wing_top_right 0.000000 0.000000 0.000000 0.000000 0.000000 0.000000 10.000000 
front_bottom_rumble_left 0.000000 0.000000 0.000000 0.000000 0.000000 0.000000 10.000000 
front_bottom_rumble_right 0.000000 0.000000 0.000000 0.000000 0.000000 0.000000 10.000000 
back_rotate_bottom_left 0.000000 0.000000 0.000000 0.000000 0.000000 0.000000 10.000000 
back_rotate_bottom_right 0.000000 0.000000 0.000000 0.000000 0.000000 0.000000 10.000000 
back_rotate_top_left 0.000000 0.000000 0.000000 0.000000 0.000000 0.000000 10.000000 
back_rotate_top_right 0.000000 0.000000 0.000000 0.000000 0.000000 0.000000 10.000000 
front_middle_part3_left 0.000000 0.000000 0.000000 0.000000 0.000000 0.000000 10.000000 
front_middle_part3_right 0.000000 0.000000 0.000000 0.000000 0.000000 0.000000 10.000000 
wing_bottom_left_buckets_1 0.000000 0.000000 0.000000 0.000000 0.000000 0.000000 10.000000 
wing_bottom_left_buckets_2 0.000000 0.000000 0.000000 0.000000 0.000000 0.000000 10.000000 
wing_bottom_left_buckets_3 0.000000 0.000000 0.000000 0.000000 0.000000 0.000000 10.000000 
wing_bottom_right_buckets 0.000000 0.000000 0.000000 0.000000 0.000000 0.000000 10.000000 
wing_top_left_buckets 0.000000 0.000000 0.000000 0.000000 0.000000 0.000000 10.000000 
wing_top_left_buckets_1 0.000000 0.000000 0.000000 0.000000 0.000000 0.000000 10.000000 
wing_top_left_buckets_3 0.000000 0.000000 0.000000 0.000000 0.000000 0.000000 10.000000 
wing_top_right_buckets 0.000000 0.000000 0.000000 0.000000 0.000000 0.000000 10.000000 
#Beginning of Data. Separated by tabs
#Fr	Tx	Ty	Tz	Rx	Ry	Rz	SF
[MASTER]
24 -0.000019 0.000000 0.000000 0.000000 -0.000000 0.000000 0.000019
25 -0.000019 0.000000 0.000000 0.000000 -0.000000 0.000000 0.000019
26 -0.000019 0.000000 0.000000 0.000000 -0.000000 0.000000 0.000019
27 -0.000019 0.000000 0.000000 0.000000 -0.000000 0.000000 0.000019
[weapon]
24 -0.000076 -79.014702 86.001579 0.000000 0.000000 -0.000020 116.788681
25 -0.000076 -79.014702 86.001579 0.000000 0.000000 -0.000020 116.788681
26 -0.000076 -79.014702 86.001579 0.000000 0.000000 -0.000020 116.788681
27 -0.000076 -79.014702 86.001579 0.000000 0.000000 -0.000020 116.788681
[back_slider]
24 0.000095 -41.099491 -85.991898 0.000000 -0.000000 0.000000 95.308838
25 0.000114 -46.621605 -85.991974 0.000000 -0.000000 0.000000 97.817146
26 0.000095 -51.747414 -85.991898 0.000000 -0.000000 0.000000 100.361351
27 0.000076 -56.873226 -85.991821 0.000000 -0.000000 0.000000 103.097801
[front_bottom]
24 0.000024 703.949219 -218.494385 6.578083 -0.001562 179.998245 737.078247
25 0.000029 706.330261 -218.667648 6.340317 -0.001565 179.998260 739.403748
26 0.000033 708.711243 -218.840881 6.102576 -0.001569 179.998260 741.729736
27 0.000038 711.092224 -219.014130 5.859921 -0.001573 179.998260 744.056030
[front_middle_part1]
24 0.000000 519.313477 -85.992035 0.001179 -79.473351 0.001179 526.384949
25 0.000000 519.313477 -85.992035 0.001175 -84.219078 0.001175 526.384949
26 0.000000 519.313477 -85.992035 0.001174 -88.878998 0.001174 526.384949
27 0.000000 519.313477 -85.992035 179.998825 -86.554054 179.998825 526.384949
[front_middle_part2]
24 0.000000 477.040344 -85.992035 0.005976 67.350006 0.005976 484.728912
25 0.000000 477.040344 -85.992035 0.007083 70.923752 0.007083 484.728912
26 0.000000 477.040344 -85.992035 0.008609 74.330299 0.008609 484.728912
27 0.000000 477.040344 -85.992035 0.010817 77.542419 0.010817 484.728912
[front_middle_part3]
24 0.000114 -225.109787 -85.991974 0.000000 -0.000000 0.000000 240.975174
25 0.000095 -226.930908 -85.991898 0.000000 -0.000000 0.000000 242.677246
26 0.000076 -228.752014 -85.991821 0.000000 -0.000000 0.000000 244.381012
27 0.000095 -230.066071 -85.991898 0.000000 -0.000000 0.000000 245.611496
[front_middle_part4]
24 0.000000 -443.853668 -85.992035 0.000000 -0.000000 0.000000 452.106964
25 0.000000 -443.853668 -85.992035 0.000000 -0.000000 0.000000 452.106964
26 0.000000 -443.853668 -85.992035 0.000000 -0.000000 0.000000 452.106964
27 0.000000 -443.853668 -85.992035 0.000000 -0.000000 0.000000 452.106964
[front_top]
24 0.000038 644.237915 -163.939362 -12.471238 0.001830 0.001470 664.769653
25 0.000038 650.006409 -164.238739 -13.232716 0.001840 0.001457 670.434692
26 0.000038 655.387390 -164.517670 -13.979831 0.001849 0.001445 675.720886
27 -0.000038 660.328796 -164.774170 -14.707592 0.001859 0.001434 680.576721
[wing_bottom_left]
24 -124.333710 235.191696 -217.766312 167.363586 53.996937 164.509842 343.796692
25 -124.333710 235.191696 -217.766312 166.717331 53.890083 163.711838 343.796692
26 -124.333710 235.191696 -217.766312 166.075333 53.777931 162.917984 343.796692
27 -124.333710 235.191696 -217.766312 165.489227 53.666996 162.187286 343.796692
[wing_bottom_right]
24 124.947586 235.191696 -217.766144 0.000000 54.999989 0.000000 344.019073
25 124.947586 235.191696 -217.766144 0.000000 54.999989 0.000000 344.019073
26 124.947586 235.191696 -217.766144 0.000000 54.999989 0.000000 344.019073
27 124.947586 235.191696 -217.766144 0.000000 54.999989 0.000000 344.019073
[wing_top_left]
24 -124.333710 235.191696 62.502743 -165.278412 -53.625019 161.929398 273.277527
25 -124.333710 235.191696 62.502743 -164.557571 -53.480717 161.030350 273.277527
26 -124.333710 235.191696 62.502743 -163.874649 -53.336796 160.180084 273.277527
27 -124.333710 235.191696 62.502743 -163.233505 -53.200336 159.378922 273.277527
[wing_top_right]
24 131.595657 235.191696 62.502682 -0.000000 -55.000015 0.000000 276.657074
25 131.595657 235.191696 62.502682 -0.000000 -55.000015 0.000000 276.657074
26 131.595657 235.191696 62.502682 -0.000000 -55.000015 0.000000 276.657074
27 131.595657 235.191696 62.502682 -0.000000 -55.000015 0.000000 276.657074
[front_bottom_rumble_left]
24 163.070297 263.743958 -16.969442 -129.881882 18.229330 75.387009 310.549133
25 163.070297 263.743958 -16.969442 -129.881882 18.229330 75.387009 310.549133
26 163.070297 263.743958 -16.969442 -129.881882 18.229330 75.387009 310.549133
27 163.070297 263.743958 -16.969442 -129.881882 18.229330 75.387009 310.549133
[front_bottom_rumble_right]
24 -163.070480 263.743835 -16.969442 -50.118145 18.229362 104.612976 310.549133
25 -163.070480 263.743835 -16.969442 -50.118145 18.229362 104.612976 310.549133
26 -163.070480 263.743835 -16.969442 -50.118145 18.229362 104.612976 310.549133
27 -163.070480 263.743835 -16.969442 -50.118145 18.229362 104.612976 310.549133
[back_rotate_bottom_left]
24 -38.067558 -195.870575 -38.097980 0.000000 -0.000000 0.000000 203.140045
25 -38.067558 -195.870575 -38.097980 0.000000 -0.000000 0.000000 203.140045
26 -38.067558 -195.870575 -38.097980 0.000000 -0.000000 0.000000 203.140045
27 -38.067558 -195.870575 -38.097980 0.000000 -0.000000 0.000000 203.140045
[back_rotate_bottom_right]
24 38.098610 -195.870575 -38.057903 0.000000 -0.000000 0.000000 203.138351
25 38.098610 -195.870575 -38.057903 0.000000 -0.000000 0.000000 203.138351
26 38.098610 -195.870575 -38.057903 0.000000 -0.000000 0.000000 203.138351
27 38.098610 -195.870575 -38.057903 0.000000 -0.000000 0.000000 203.138351
[back_rotate_top_left]
24 -38.074085 -195.870575 38.105885 0.000000 -0.000000 0.000000 203.142746
25 -38.074085 -195.870575 38.105885 0.000000 -0.000000 0.000000 203.142746
26 -38.074085 -195.870575 38.105885 0.000000 -0.000000 0.000000 203.142746
27 -38.074085 -195.870575 38.105885 0.000000 -0.000000 0.000000 203.142746
[back_rotate_top_right]
24 38.111603 -195.870575 38.079086 0.000000 -0.000000 0.000000 203.144760
25 38.111603 -195.870575 38.079086 0.000000 -0.000000 0.000000 203.144760
26 38.111603 -195.870575 38.079086 0.000000 -0.000000 0.000000 203.144760
27 38.111603 -195.870575 38.079086 0.000000 -0.000000 0.000000 203.144760
[front_middle_part3_left]
24 -90.176392 364.727112 0.462952 89.997330 -0.000025 -1.067793 375.709808
25 -90.176392 364.727112 0.462952 89.999649 -0.000007 -2.326910 375.709808
26 -90.176392 364.727112 0.462952 90.002724 0.000095 -3.992192 375.709808
27 -90.176392 364.727112 0.462952 90.001671 0.000088 -6.015482 375.709808
[front_middle_part3_right]
24 91.046051 364.727081 0.046265 -90.000000 0.000003 180.000000 375.919159
25 91.046051 364.727081 0.046265 -90.000000 0.000003 180.000000 375.919159
26 91.046051 364.727081 0.046265 -90.000000 0.000003 180.000000 375.919159
27 91.046051 364.727081 0.046265 -90.000000 0.000003 180.000000 375.919159
[wing_bottom_left_buckets_1]
24 -47.610477 -288.454193 -9.889640 -0.000027 0.000020 -0.000035 292.524170
25 -47.610477 -288.454193 -9.889640 -0.000027 0.000020 -0.000035 292.524170
26 -47.610477 -288.454193 -9.889640 -0.000027 0.000020 -0.000035 292.524170
27 -47.610477 -288.454193 -9.889640 -0.000027 0.000020 -0.000035 292.524170
[wing_bottom_left_buckets_2]
24 -47.610565 -358.672546 -9.889595 -0.000031 -0.000003 -0.000031 361.953827
25 -47.610565 -358.672546 -9.889595 -0.000031 -0.000003 -0.000031 361.953827
26 -47.610565 -358.672546 -9.889595 -0.000031 -0.000003 -0.000031 361.953827
27 -47.610565 -358.672546 -9.889595 -0.000031 -0.000003 -0.000031 361.953827
[wing_bottom_left_buckets_3]
24 -47.610672 -428.104828 -9.889513 -0.000027 0.000020 -0.000035 430.857635
25 -47.610672 -428.104828 -9.889513 -0.000027 0.000020 -0.000035 430.857635
26 -47.610672 -428.104828 -9.889513 -0.000027 0.000020 -0.000035 430.857635
27 -47.610672 -428.104828 -9.889513 -0.000027 0.000020 -0.000035 430.857635
[wing_bottom_right_buckets]
24 -47.962635 -358.672546 9.386807 0.000027 0.000061 -0.000035 361.986908
25 -47.962635 -358.672546 9.386807 0.000027 0.000061 -0.000035 361.986908
26 -47.962635 -358.672546 9.386807 0.000027 0.000061 -0.000035 361.986908
27 -47.962635 -358.672546 9.386807 0.000027 0.000061 -0.000035 361.986908
[wing_top_left_buckets]
24 -45.484066 -358.586609 10.598831 0.001853 11.405451 0.001853 361.615112
25 -45.484066 -358.586609 10.598831 0.001857 11.609260 0.001857 361.615112
26 -45.484066 -358.586609 10.598831 0.001899 13.654376 0.001899 361.615112
27 -45.484066 -358.586609 10.598831 0.001937 15.419335 0.001937 361.615112
[wing_top_left_buckets_1]
24 -45.484005 -287.973450 10.598879 0.000027 0.000000 -0.000035 291.735931
25 -45.484005 -287.973450 10.598879 0.000027 0.000000 -0.000035 291.735931
26 -45.484005 -287.973450 10.598879 0.000027 0.000000 -0.000035 291.735931
27 -45.484005 -287.973450 10.598879 0.000027 0.000000 -0.000035 291.735931
[wing_top_left_buckets_3]
24 -45.484154 -426.601654 10.598794 0.000027 0.000000 -0.000035 429.150452
25 -45.484154 -426.601654 10.598794 0.000027 0.000000 -0.000035 429.150452
26 -45.484154 -426.601654 10.598794 0.000027 0.000000 -0.000035 429.150452
27 -45.484154 -426.601654 10.598794 0.000027 0.000000 -0.000035 429.150452
[wing_top_right_buckets]
24 -46.906902 -358.586700 -9.449236 -0.000044 -0.000038 -0.000035 361.765076
25 -46.906902 -358.586700 -9.449236 -0.000044 -0.000038 -0.000035 361.765076
26 -46.906902 -358.586700 -9.449236 -0.000044 -0.000038 -0.000035 361.765076
27 -46.906902 -358.586700 -9.449236 -0.000044 -0.000038 -0.000035 361.765076
